<?xml version="1.0" encoding="UTF-8"?>
<svg role="img" width="50px" height="32px" viewBox="0 0 50 32" version="1.1" xmlns="http://www.w3.org/2000/svg" xmlns:xlink="http://www.w3.org/1999/xlink">
    <!-- Generator: Sketch 52.4 (67378) - http://www.bohemiancoding.com/sketch -->
    <title>nav_logo_SortHvit</title>
    <desc>Created with Sketch.</desc>
    <defs>
        <polygon id="path-1" points="0.0204081633 0.284693878 38.9282313 0.284693878 38.9282313 31.6326531 0.0204081633 31.6326531"></polygon>
    </defs>
    <g id="stillingsannonse" stroke="none" stroke-width="1" fill="none" fill-rule="evenodd">
        <g id="Stillingssok_mail" transform="translate(-40.000000, -815.000000)">
            <g id="Group-4" transform="translate(39.000000, 815.000000)">
                <g id="nav_logo_SortHvit" transform="translate(1.000000, 0.000000)">
                    <g>
                        <g id="Group-4">
                            <mask id="mask-2" fill="white">
                                <use xlink:href="#path-1"></use>
                            </mask>
                            <g id="Clip-2"></g>
                            <path d="M38.9282313,15.9595238 C38.9282313,24.6153061 31.9095238,31.6326531 23.2520408,31.6326531 C14.5979592,31.6326531 7.57993197,24.6153061 7.57993197,15.9595238 C7.57993197,7.30306122 14.5979592,0.284693878 23.2520408,0.284693878 C31.9095238,0.284693878 38.9282313,7.30306122 38.9282313,15.9595238" id="Fill-1" fill="#1A1919" mask="url(#mask-2)"></path>
                            <polyline id="Fill-3" fill="#1A1919" mask="url(#mask-2)" points="0 22.8037415 3.20340136 14.8744898 6.28163265 14.8744898 3.08231293 22.8037415 0 22.8037415"></polyline>
                        </g>
                        <polyline id="Fill-5" fill="#1A1919" points="39.5323129 22.8037415 42.694898 14.8744898 44.3734694 14.8744898 41.2105442 22.8037415 39.5323129 22.8037415"></polyline>
                        <polyline id="Fill-6" fill="#1A1919" points="45.7520408 22.8037415 48.9142857 14.8744898 49.8057823 14.8744898 46.6428571 22.8037415 45.7520408 22.8037415"></polyline>
                        <path d="M24.6612245,19.9377551 L23.0465986,19.9377551 C22.4044218,19.9377551 21.8816327,19.4173469 21.8816327,18.7744898 C21.8816327,18.1316327 22.4044218,17.6085034 23.0465986,17.6085034 L23.4982993,17.6085034 C24.1394558,17.6085034 24.6612245,18.1316327 24.6612245,18.7744898 L24.6612245,19.9377551 Z M36.6217687,14.8744898 L33.8357143,14.8744898 C33.8357143,14.8744898 33.6438776,14.8744898 33.5761905,15.0442177 L32.0340136,19.7639456 L30.4931973,15.0442177 C30.4251701,14.8744898 30.2319728,14.8744898 30.2319728,14.8744898 L24.8744898,14.8744898 C24.7585034,14.8744898 24.6612245,14.9717687 24.6612245,15.0870748 L24.6612245,16.6897959 C24.6612245,15.4183673 23.3081633,14.8744898 22.5159864,14.8744898 C20.7411565,14.8744898 19.5537415,16.0435374 19.1840136,17.8197279 C19.1636054,16.6418367 19.0659864,16.2193878 18.7486395,15.7867347 C18.602381,15.5751701 18.3918367,15.3962585 18.1622449,15.2489796 C17.6897959,14.9721088 17.2653061,14.8744898 16.3530612,14.8744898 L15.2826531,14.8744898 C15.2826531,14.8744898 15.0887755,14.8744898 15.0204082,15.0442177 L14.0459184,17.4581633 L14.0459184,15.0870748 C14.0459184,14.9717687 13.95,14.8744898 13.8340136,14.8744898 L11.3561224,14.8744898 C11.3561224,14.8744898 11.1646259,14.8744898 11.0952381,15.0442177 L10.0823129,17.5554422 C10.0823129,17.5554422 9.98095238,17.8064626 10.2122449,17.8064626 L11.1646259,17.8064626 L11.1646259,22.5904762 C11.1646259,22.7095238 11.2581633,22.8037415 11.377551,22.8037415 L13.8340136,22.8037415 C13.95,22.8037415 14.0459184,22.7095238 14.0459184,22.5904762 L14.0459184,17.8064626 L15.0034014,17.8064626 C15.5530612,17.8064626 15.6693878,17.8214286 15.8833333,17.9210884 C16.0119048,17.9697279 16.1278912,18.0670068 16.1914966,18.1816327 C16.3207483,18.4251701 16.3530612,18.7180272 16.3530612,19.5819728 L16.3530612,22.5904762 C16.3530612,22.7095238 16.4486395,22.8037415 16.5663265,22.8037415 L18.9210884,22.8037415 C18.9210884,22.8037415 19.1870748,22.8037415 19.2921769,22.5408163 L19.8139456,21.2506803 C20.507483,22.2227891 21.6496599,22.8037415 23.0687075,22.8037415 L23.3789116,22.8037415 C23.3789116,22.8037415 23.6465986,22.8037415 23.752381,22.5408163 L24.6612245,20.2897959 L24.6612245,22.5904762 C24.6612245,22.7095238 24.7585034,22.8037415 24.8744898,22.8037415 L27.277551,22.8037415 C27.277551,22.8037415 27.5431973,22.8037415 27.6493197,22.5408163 C27.6493197,22.5408163 28.6112245,20.1540816 28.6142857,20.1357143 L28.6159864,20.1357143 C28.6527211,19.9377551 28.4020408,19.9377551 28.4020408,19.9377551 L27.5442177,19.9377551 L27.5442177,15.842517 L30.2428571,22.5408163 C30.3486395,22.8037415 30.6139456,22.8037415 30.6139456,22.8037415 L33.4537415,22.8037415 C33.4537415,22.8037415 33.7210884,22.8037415 33.8258503,22.5408163 L36.8180272,15.1312925 C36.9221088,14.8744898 36.6217687,14.8744898 36.6217687,14.8744898 Z" id="Fill-7" fill="#FFFFFE"></path>
                    </g>
                </g>
            </g>
        </g>
    </g>
</svg>